<?xml version="1.0" encoding="UTF-8" standalone="no"?>
<!DOCTYPE svg PUBLIC "-//W3C//DTD SVG 1.1//EN" "http://www.w3.org/Graphics/SVG/1.1/DTD/svg11.dtd">
<svg width="100%" height="100%" viewBox="0 0 500 500" version="1.1" xmlns="http://www.w3.org/2000/svg" xmlns:xlink="http://www.w3.org/1999/xlink" xml:space="preserve" xmlns:serif="http://www.serif.com/" style="fill-rule:evenodd;clip-rule:evenodd;stroke-linejoin:round;stroke-miterlimit:2;">
    <g id="Layer1">
        <circle cx="250" cy="250" r="249.101" style="fill:white;"/>
    </g>
    <g id="LOGO" transform="matrix(2.92608,0,0,2.92608,-42.5883,-42.7571)">
        <g>
            <path d="M100.016,41.953C100.011,41.953 100.005,41.953 100,41.953C68.051,41.953 42.095,67.821 41.953,99.737L32.787,99.737C32.929,62.761 62.991,32.786 100,32.786L100.016,32.786L100.016,41.953Z" style="fill:rgb(88,105,122);"/>
            <path d="M100.016,32.786L100.153,32.786L100.153,41.894L100.153,32.786C137.068,32.869 167.033,62.774 167.213,99.666L158.046,99.666C157.866,67.788 131.935,41.962 100.016,41.953L100.016,32.786Z" style="fill:rgb(30,58,95);"/>
            <path d="M100.083,167.214C100.055,167.214 100.028,167.214 100,167.214C62.904,167.214 32.786,137.096 32.786,100L32.787,99.737L41.953,99.737L41.953,100C41.953,132.037 67.963,158.047 100,158.047C100.028,158.047 100.055,158.047 100.083,158.047L100.083,167.214Z" style="fill:rgb(30,58,95);"/>
            <path d="M100.083,158.047C132.082,158.002 158.047,132.01 158.047,100L158.046,99.666L167.213,99.666L167.214,100C167.214,137.069 137.141,167.169 100.083,167.214L100.083,158.047Z" style="fill:rgb(88,105,122);"/>
        </g>
        <g transform="matrix(1.29054e-16,-2.10761,2.25168,1.37876e-16,-183.271,145.659)">
            <path d="M21.664,89.525L25.361,100L17.967,100L21.664,89.525Z" style="fill:rgb(88,105,122);"/>
        </g>
        <path d="M18.311,100L41.897,100L41.897,107.793L18.311,100Z" style="fill:rgb(30,58,95);"/>
        <g transform="matrix(-1.29054e-16,-2.10761,-2.25168,1.37876e-16,383.257,145.659)">
            <path d="M21.664,89.525L25.361,100L17.967,100L21.664,89.525Z" style="fill:rgb(30,58,95);"/>
        </g>
        <g transform="matrix(-2.10761,-2.58108e-16,2.75751e-16,-2.25168,145.653,383.264)">
            <path d="M21.664,89.525L25.361,100L17.967,100L21.664,89.525Z" style="fill:rgb(88,105,122);"/>
        </g>
        <g transform="matrix(6.12323e-17,-1,-1,-6.12323e-17,199.993,199.993)">
            <path d="M18.311,100L41.897,100L41.897,107.793L18.311,100Z" style="fill:rgb(30,58,95);"/>
        </g>
        <g transform="matrix(-1,0,0,1,199.986,0)">
            <path d="M18.311,100L41.897,100L41.897,107.793L18.311,100Z" style="fill:rgb(88,105,122);"/>
        </g>
        <g transform="matrix(1.02396,0,0,1.02931,-2.36601,-49.5603)">
            <path d="M100,67.718L89.386,95.667L100,90.015L110.756,95.667L100,67.718Z" style="fill:rgb(30,58,95);"/>
        </g>
        <g id="_-Airplane-" serif:id="&quot;Airplane&quot;" transform="matrix(1.02902,0,0,1.02237,-2.90197,-0.733561)">
            <g transform="matrix(1.3157,0,0,1.30954,-34.934,-32.1067)">
                <path d="M106.126,49.554L137.019,132.982L106.126,114.982L106.126,49.554ZM110.742,75.333L110.742,112.284L128.189,122.45L110.742,75.333Z" style="fill:rgb(30,58,95);"/>
            </g>
            <g transform="matrix(-1.3157,0,0,1.30954,234.958,-32.1067)">
                <path d="M106.126,49.554L106.126,114.982L137.019,132.982L106.126,49.554ZM110.742,75.333L128.189,122.45L110.742,112.284L110.742,75.333Z" style="fill:rgb(30,58,95);"/>
            </g>
        </g>
        <g id="Whiteout">
            <g transform="matrix(1.02509,-0.0662583,-0.0681354,1.17994,4.34533,-16.7414)">
                <path d="M93.041,29.237C93.441,28.165 94.816,27.685 96.109,28.167C97.401,28.649 98.126,29.912 97.726,30.985L55.07,145.358C54.67,146.43 53.295,146.91 52.002,146.428C50.71,145.946 49.985,144.683 50.385,143.61L93.041,29.237Z" style="fill:white;"/>
            </g>
            <g transform="matrix(-0.315629,0.899345,-0.580512,0.0692283,200.588,63.0501)">
                <path d="M93.041,29.237C94.005,26.653 95.837,24.946 97.13,25.428C98.423,25.911 98.69,28.4 97.726,30.985L55.07,145.358C54.106,147.942 52.274,149.649 50.981,149.167C49.688,148.684 49.421,146.195 50.385,143.61L93.041,29.237Z" style="fill:white;"/>
            </g>
            <g transform="matrix(0.315629,0.899345,0.580512,0.0692283,-0.445996,63.0501)">
                <path d="M97.726,30.985C98.69,28.4 98.423,25.911 97.13,25.428C95.837,24.946 94.005,26.653 93.041,29.237L50.385,143.61C49.421,146.195 49.688,148.684 50.981,149.167C52.274,149.649 54.106,147.942 55.07,145.358L97.726,30.985Z" style="fill:white;"/>
            </g>
            <g transform="matrix(-1.02509,-0.0662583,0.0681354,1.17994,195.71,-16.7414)">
                <path d="M97.726,30.985C98.126,29.912 97.401,28.649 96.109,28.167C94.816,27.685 93.441,28.165 93.041,29.237L50.385,143.61C49.985,144.683 50.71,145.946 52.002,146.428C53.295,146.91 54.67,146.43 55.07,145.358L97.726,30.985Z" style="fill:white;"/>
            </g>
        </g>
    </g>
</svg>
