<?xml version="1.0" encoding="UTF-8" standalone="no"?><!DOCTYPE svg PUBLIC "-//W3C//DTD SVG 1.1//EN" "http://www.w3.org/Graphics/SVG/1.1/DTD/svg11.dtd"><svg width="100%" height="100%" viewBox="0 0 120 120" version="1.1" xmlns="http://www.w3.org/2000/svg" xmlns:xlink="http://www.w3.org/1999/xlink" xml:space="preserve" xmlns:serif="http://www.serif.com/" style="fill-rule:evenodd;clip-rule:evenodd;stroke-linejoin:round;stroke-miterlimit:2;"><g id="Background--circle-----Parchment-" serif:id="Background (circle) - &quot;Parchment&quot;"><circle cx="60" cy="60" r="59.784" style="fill:#ebddcc;"/></g><g id="LOGO----Parchment-" serif:id="LOGO - &quot;Parchment&quot;"><g><path d="M60.016,19.2c-0.004,0 -0.007,0 -0.011,0c-22.437,0 -40.664,18.166 -40.764,40.579l-6.437,0c0.099,-25.966 21.211,-47.016 47.201,-47.016l0.011,-0l0,6.437Z" style="fill:#58697a;"/><path d="M60.016,12.763l0.097,-0l-0,6.396l-0,-6.396c25.923,0.058 46.967,21.059 47.093,46.967l-6.438,-0c-0.126,-22.387 -18.337,-40.524 -40.752,-40.53l0,-6.437Z" style="fill:#1e3a5f;"/><path d="M60.063,107.166c-0.019,-0 -0.039,-0 -0.058,-0c-26.051,-0 -47.202,-21.15 -47.202,-47.202l0.001,-0.185l6.437,0l-0,0.185c-0,22.499 18.265,40.764 40.764,40.764c0.019,0 0.039,0 0.058,0l-0,6.438Z" style="fill:#1e3a5f;"/><path d="M60.063,100.728c22.472,-0.031 40.706,-18.285 40.706,-40.764l-0.001,-0.234l6.438,-0l0,0.234c0,26.032 -21.119,47.17 -47.143,47.202l-0,-6.438Z" style="fill:#58697a;"/></g><path d="M2.638,59.964l16.564,-5.472l-0,10.945l-16.564,-5.473Z" style="fill:#58697a;"/><path d="M2.638,59.964l16.564,0l-0,5.473l-16.564,-5.473Z" style="fill:#1e3a5f;"/><path d="M117.362,59.964l-16.564,-5.472l0,10.945l16.564,-5.473Z" style="fill:#1e3a5f;"/><path d="M60,117.326l-5.472,-16.563l10.944,-0l-5.472,16.563Z" style="fill:#58697a;"/><path d="M60,117.326l-0,-16.563l-5.472,-0l5.472,16.563Z" style="fill:#1e3a5f;"/><path d="M117.362,59.964l-16.564,0l0,5.473l16.564,-5.473Z" style="fill:#58697a;"/><path d="M60.026,3.884l-7.633,20.202l7.633,-4.085l7.734,4.085l-7.734,-20.202Z" style="fill:#1e3a5f;"/><g id="_-Airplane-" serif:id="&quot;Airplane&quot;"><path d="M63.398,12.763l29.372,78.441l-29.372,-16.924l0,-61.517Zm4.389,24.238l0,34.742l16.588,9.558l-16.588,-44.3Z" style="fill:#1e3a5f;"/><path d="M56.628,12.763l0,61.517l-29.371,16.924l29.371,-78.441Zm-4.389,24.238l-16.588,44.3l16.588,-9.558l0,-34.742Z" style="fill:#1e3a5f;"/></g><g id="Whiteout"><path d="M58.41,-2.121c0.339,-0.908 1.352,-1.369 2.259,-1.029c0.908,0.339 1.369,1.351 1.03,2.259l-36.18,96.757c-0.34,0.907 -1.352,1.369 -2.259,1.029c-0.908,-0.339 -1.369,-1.352 -1.03,-2.259l36.18,-96.757Z" style="fill:#ebddcc;"/><path d="M98.101,94.2c0.84,0.483 1.13,1.557 0.647,2.397c-0.483,0.84 -1.557,1.13 -2.397,0.646l-37.172,-21.38c-0.84,-0.483 -1.129,-1.557 -0.646,-2.397c0.483,-0.84 1.557,-1.13 2.397,-0.647l37.171,21.381Z" style="fill:#ebddcc;"/><path d="M23.758,97.243c-0.839,0.484 -1.914,0.194 -2.397,-0.646c-0.483,-0.84 -0.193,-1.914 0.647,-2.397l37.171,-21.381c0.84,-0.483 1.914,-0.193 2.397,0.647c0.484,0.84 0.194,1.914 -0.646,2.397l-37.172,21.38Z" style="fill:#ebddcc;"/><path d="M58.349,-0.891c-0.339,-0.908 0.122,-1.92 1.03,-2.259c0.908,-0.34 1.92,0.121 2.259,1.029l36.18,96.757c0.34,0.907 -0.121,1.92 -1.029,2.259c-0.908,0.34 -1.92,-0.122 -2.259,-1.029l-36.181,-96.757Z" style="fill:#ebddcc;"/></g></g></svg>